<svg xmlns="http://www.w3.org/2000/svg" viewBox="0 0 1024 1024" role="img" aria-labelledby="title description">
  <title id="title">Hey Codex</title>
  <desc id="description">A listening ear beside a subtle terminal prompt.</desc>
  <defs>
    <linearGradient id="background" x1="160" y1="96" x2="864" y2="928" gradientUnits="userSpaceOnUse">
      <stop stop-color="#151C52"/>
      <stop offset="1" stop-color="#080D2D"/>
    </linearGradient>
    <linearGradient id="ear" x1="292" y1="166" x2="662" y2="798" gradientUnits="userSpaceOnUse">
      <stop stop-color="#C5C2FF"/>
      <stop offset="1" stop-color="#929BFF"/>
    </linearGradient>
  </defs>
  <rect x="64" y="64" width="896" height="896" rx="224" fill="url(#background)"/>
  <g fill="none" stroke="url(#ear)" stroke-linecap="round" stroke-linejoin="round">
    <path d="M310 438 C286 280 384 170 526 170 C684 170 768 300 722 442 C690 538 614 570 583 661 C558 736 505 799 408 782 C326 768 284 702 302 616" stroke-width="80"/>
    <path d="M431 444 C414 351 476 304 544 316 C618 329 646 396 612 453 C594 484 557 497 540 530 C526 557 531 584 505 611" stroke-width="68"/>
  </g>
  <g transform="translate(12 110)" fill="none" stroke="#FFF0C7" stroke-width="40" stroke-linecap="round" stroke-linejoin="round">
    <path d="M776 414 L824 462 L776 510"/>
    <path d="M774 588 H826"/>
  </g>
</svg>
